# xmcd
#
# Track frame offsets:
#       150
#       17967
#       39125
#       44073
#       62402
#       70427
#       79755
#       97862
#       117854
#       127905
#       143867
#       160466
#
# Disc length: 2331 seconds
#
# Revision: 1
# Processed by: cddbd v1.5.2PL0 Copyright (c) Steve Scherf et al.
# Submitted via: MusiCat 1.1
#
DISCID=9d09190c
DTITLE=Bert Jansch - It Don't Bother Me
DYEAR=1900
DGENRE=
TTITLE0=Oh My babe
TTITLE1=Ring A Ding Bird
TTITLE2=Tinker's Blues
TTITLE3=Anti-Apartheid
TTITLE4=The Wheel
TTITLE5=A Man I'd rather Be
TTITLE6=My Lover
TTITLE7=It Don't Bother Me
TTITLE8=Harvest Your Thoughts Of Love
TTITLE9=Lucky Thirteen
TTITLE10=As The days Grow Longer
TTITLE11=So Long (Been On The Road So Long)
EXTD=\n\n
EXTT0=
EXTT1=
EXTT2=
EXTT3=
EXTT4=
EXTT5=
EXTT6=
EXTT7=
EXTT8=
EXTT9=
EXTT10=
EXTT11=
PLAYORDER=
